<?xml version="1.0" standalone="no"?>
<!DOCTYPE svg PUBLIC "-//W3C//DTD SVG 20010904//EN"
 "http://www.w3.org/TR/2001/REC-SVG-20010904/DTD/svg10.dtd">
<svg version="1.0" xmlns="http://www.w3.org/2000/svg"
 width="4096.000000pt" height="4096.000000pt" viewBox="0 0 4096.000000 4096.000000"
 preserveAspectRatio="xMidYMid meet">

<g transform="translate(0.000000,4096.000000) scale(0.100000,-0.100000)"
fill="#000000" stroke="none">
<path d="M20386 26909 c-1548 -68 -3032 -709 -4141 -1791 -249 -243 -449 -468
-643 -726 -979 -1296 -1422 -2919 -1241 -4537 194 -1731 1100 -3315 2494
-4363 320 -240 635 -432 1010 -617 787 -387 1580 -595 2465 -645 914 -51 1855
106 2719 454 1988 803 3440 2567 3850 4676 116 597 145 1289 80 1880 -182
1659 -982 3147 -2264 4216 -806 671 -1774 1131 -2815 1338 -329 66 -619 100
-985 116 -240 11 -266 11 -529 -1z m-611 -2385 c136 -30 218 -84 292 -191 85
-125 105 -260 59 -393 -47 -134 -124 -223 -245 -282 -63 -31 -72 -33 -200 -35
-109 -2 -138 -6 -153 -19 -10 -10 -18 -22 -18 -27 0 -5 -9 -28 -19 -51 -11
-23 -29 -62 -40 -88 -23 -52 -58 -131 -72 -163 -16 -37 -81 -200 -89 -225 -5
-14 -20 -56 -35 -95 -14 -38 -30 -83 -35 -100 -5 -16 -20 -61 -35 -100 -14
-38 -39 -108 -55 -155 -16 -47 -41 -116 -55 -155 -15 -38 -30 -83 -35 -100 -5
-16 -20 -61 -35 -100 -14 -38 -30 -83 -35 -100 -5 -16 -20 -61 -35 -100 -14
-38 -39 -108 -55 -155 -60 -173 -100 -287 -125 -355 -15 -38 -30 -83 -35 -100
-5 -16 -21 -61 -35 -100 -15 -38 -30 -83 -35 -100 -5 -16 -20 -61 -35 -100
-14 -38 -39 -108 -55 -155 -16 -47 -41 -116 -55 -155 -15 -38 -30 -83 -35
-100 -5 -16 -21 -61 -35 -100 -38 -100 -47 -145 -38 -190 7 -34 15 -43 53 -63
39 -20 55 -23 115 -18 166 13 292 49 510 145 28 12 57 26 65 31 8 5 34 19 57
30 39 20 222 138 403 260 41 28 118 79 170 113 52 34 100 65 105 69 18 15 508
338 511 338 2 0 30 18 61 41 32 22 73 50 91 61 38 24 552 363 567 375 6 5 29
21 53 37 41 28 43 32 37 64 -6 32 -28 89 -61 155 -8 16 -14 33 -14 39 0 6 -9
29 -19 52 -11 23 -32 73 -46 111 -15 39 -31 74 -36 79 -5 6 -9 16 -9 24 0 8
-9 33 -19 56 -11 23 -29 66 -41 96 -11 30 -25 64 -30 75 -5 11 -30 72 -55 135
-25 63 -50 124 -55 135 -5 11 -19 45 -30 75 -12 30 -30 73 -41 96 -10 23 -19
46 -19 53 0 6 -8 24 -17 38 -23 35 -24 144 -2 198 19 48 55 159 63 197 5 23
10 26 28 19 12 -4 27 -23 34 -43 6 -19 24 -61 39 -94 15 -32 36 -79 47 -104
10 -25 25 -58 33 -75 8 -16 26 -57 40 -90 111 -248 122 -271 193 -425 22 -47
51 -110 65 -140 78 -171 107 -233 227 -485 78 -165 217 -449 357 -735 180
-365 190 -389 226 -510 9 -30 24 -80 34 -110 12 -38 18 -99 21 -197 3 -126 1
-151 -19 -218 -19 -66 -31 -85 -87 -146 -66 -72 -105 -97 -202 -133 -48 -18
-78 -21 -225 -21 -171 0 -237 9 -368 51 -26 8 -69 18 -96 21 -45 5 -52 3 -98
-33 -66 -52 -104 -70 -194 -90 -72 -15 -81 -15 -170 2 -111 21 -183 59 -251
132 -92 98 -133 197 -133 317 0 70 26 174 52 206 7 8 13 20 13 25 0 6 8 20 18
33 113 149 265 214 447 191 107 -14 176 -48 255 -129 85 -86 126 -165 136
-260 7 -71 7 -72 45 -91 21 -11 70 -25 110 -30 39 -6 75 -12 79 -15 18 -11
204 -24 261 -18 55 5 67 11 105 48 42 40 44 44 44 101 0 58 -4 77 -33 182 -9
29 -105 232 -214 452 -143 288 -203 400 -218 404 -18 5 -97 -38 -334 -181 -16
-10 -70 -43 -120 -73 -51 -30 -103 -62 -116 -70 -12 -8 -47 -30 -76 -48 -96
-59 -164 -101 -179 -111 -8 -6 -42 -28 -75 -49 -33 -21 -89 -58 -125 -81 -36
-23 -72 -46 -80 -51 -179 -116 -524 -350 -602 -409 -25 -20 -69 -52 -98 -71
-28 -19 -73 -51 -100 -70 -85 -61 -199 -130 -283 -172 -136 -68 -157 -78 -170
-78 -7 0 -25 -7 -42 -16 -48 -25 -178 -39 -355 -39 -209 0 -300 11 -369 43
-97 45 -171 137 -198 247 -29 118 -3 323 63 498 8 20 20 54 28 75 8 20 24 69
35 107 46 153 64 211 76 245 7 19 22 69 35 110 13 41 28 91 36 110 21 58 45
133 55 173 5 21 13 45 18 55 9 16 33 84 51 147 5 17 21 62 35 100 15 39 30 84
34 100 9 34 38 116 76 220 15 39 30 84 34 100 4 17 12 39 18 50 6 11 20 45 31
75 47 128 75 196 83 204 5 6 9 16 9 24 0 8 7 30 16 50 24 53 45 103 94 217 44
101 83 190 147 325 42 89 215 437 249 499 l24 43 -32 77 c-28 67 -32 87 -32
176 -1 112 14 161 83 265 58 88 146 152 249 179 87 24 131 25 217 5z m1232
-130 c180 -60 343 -181 509 -380 146 -173 258 -351 431 -684 19 -36 39 -72 44
-80 5 -8 43 -87 85 -175 94 -200 98 -209 124 -270 24 -55 41 -94 90 -200 17
-38 41 -90 52 -115 87 -191 181 -392 288 -615 32 -66 87 -181 123 -255 35 -74
68 -146 72 -160 4 -14 14 -34 21 -45 8 -11 14 -26 14 -35 0 -8 6 -27 14 -42 8
-15 17 -42 21 -60 4 -18 13 -46 20 -63 7 -16 23 -65 36 -109 14 -45 30 -80 39
-84 8 -3 34 -13 57 -23 23 -11 45 -19 48 -19 20 0 97 -66 136 -116 65 -85 89
-136 102 -225 34 -239 -112 -463 -340 -520 -93 -23 -116 -23 -218 -2 -179 38
-313 170 -359 354 -21 85 -20 117 5 208 25 87 88 192 143 236 83 67 88 73 81
106 -4 17 -13 42 -21 57 -8 15 -14 32 -14 37 0 9 -67 180 -90 230 -5 11 -21
49 -35 85 -26 66 -29 72 -63 150 -11 25 -39 90 -62 145 -23 55 -57 133 -76
173 -19 40 -34 75 -34 77 0 3 -16 40 -36 82 -20 43 -45 98 -56 123 -138 307
-425 885 -612 1235 -24 44 -63 116 -86 160 -24 44 -57 107 -74 140 -48 92
-168 208 -261 251 -224 104 -413 53 -576 -156 -82 -106 -163 -251 -188 -340
-13 -45 -39 -119 -51 -145 -5 -11 -16 -40 -25 -65 -9 -25 -29 -83 -45 -130
-16 -47 -41 -116 -55 -155 -15 -38 -30 -83 -35 -100 -5 -16 -21 -61 -35 -100
-15 -38 -31 -86 -37 -105 -5 -19 -13 -39 -16 -45 -8 -12 -39 -98 -52 -140 -5
-16 -20 -61 -35 -100 -14 -38 -39 -108 -55 -155 -16 -47 -41 -116 -55 -155
l-25 -70 20 -40 c11 -22 38 -65 60 -95 132 -185 108 -423 -60 -591 -67 -68
-138 -105 -238 -124 -62 -12 -86 -12 -160 -1 -163 26 -272 111 -358 280 -24
46 -27 62 -28 171 l-1 120 44 88 c33 67 58 101 102 140 74 67 122 90 242 117
79 18 100 27 107 44 5 11 18 48 30 81 12 33 26 68 31 77 5 10 23 59 40 110 17
51 34 97 38 103 5 5 11 21 14 35 3 14 17 54 30 90 31 81 95 255 109 295 5 17
16 44 24 62 8 17 14 35 14 39 0 5 10 33 21 64 12 30 27 71 34 90 8 19 23 61
35 92 11 32 30 84 42 115 11 32 27 72 34 90 8 17 14 35 14 39 0 9 31 91 56
151 8 17 14 35 14 39 0 5 10 33 21 64 12 30 27 71 34 90 41 109 60 157 71 170
6 8 13 22 16 30 22 62 214 261 290 302 106 56 148 67 265 67 77 1 127 -4 160
-15z m-2300 -6044 c101 -261 183 -478 183 -483 0 -4 -39 -6 -87 -5 l-88 3 -44
123 -43 122 -198 0 -198 0 -43 -125 -44 -125 -86 0 -87 0 64 168 c35 92 119
310 186 485 l122 318 90 -3 91 -3 182 -475z m1213 413 l-1 -68 -280 -345 -281
-345 291 -3 291 -2 0 -70 0 -70 -400 0 -400 0 0 66 0 65 280 339 c154 187 280
342 280 345 0 3 -115 5 -255 5 l-255 0 0 75 0 75 365 0 365 0 0 -67z m638 -15
c16 -46 76 -217 133 -380 57 -164 107 -298 110 -298 3 0 64 170 135 378 l129
377 118 3 117 3 0 -486 0 -485 -80 0 -80 0 0 373 c0 204 -4 365 -9 357 -5 -8
-66 -176 -136 -372 l-128 -358 -71 0 -71 0 -129 363 c-71 199 -133 366 -138
372 -4 5 -8 -158 -8 -363 l0 -372 -80 0 -80 0 0 485 0 485 119 0 119 0 30 -82z
m1342 -403 l0 -485 -85 0 -85 0 0 485 0 485 85 0 85 0 0 -485z m821 124 l224
-361 3 361 2 361 80 0 80 0 0 -485 0 -486 -92 3 -92 3 -206 331 c-113 182
-213 342 -222 355 -16 23 -17 6 -17 -333 l-1 -358 -80 0 -80 0 0 485 0 485 89
0 89 0 223 -361z"/>
<path d="M19645 24261 c-70 -26 -87 -36 -112 -69 -25 -34 -28 -44 -28 -119 0
-82 0 -82 39 -122 27 -28 56 -45 93 -56 48 -14 57 -14 102 1 52 17 107 63 122
102 5 13 9 51 9 85 0 50 -5 68 -27 100 -39 56 -145 98 -198 78z"/>
<path d="M20665 20601 c-56 -22 -62 -28 -96 -73 -25 -35 -29 -50 -29 -103 0
-53 4 -68 30 -104 34 -47 102 -82 160 -84 39 -2 116 31 142 60 23 25 48 97 48
137 -1 40 -30 105 -62 133 -23 22 -108 54 -138 52 -8 -1 -33 -8 -55 -18z"/>
<path d="M19458 21777 c-58 -27 -95 -75 -104 -134 -14 -97 39 -181 133 -208
48 -14 57 -14 100 0 57 19 81 38 111 86 31 51 31 136 -2 187 -29 46 -39 54
-96 75 -58 22 -84 20 -142 -6z"/>
<path d="M22820 20742 c-67 -25 -95 -48 -116 -94 -27 -59 -24 -124 8 -173 31
-49 41 -57 98 -78 58 -21 74 -21 132 1 55 21 81 45 102 97 41 98 -12 221 -106
245 -18 5 -42 11 -53 14 -11 3 -40 -3 -65 -12z"/>
<path d="M18426 18651 c-4 -5 -35 -92 -70 -193 -35 -101 -67 -191 -71 -200 -7
-17 4 -18 144 -18 83 0 151 2 151 4 0 7 -141 410 -144 414 -2 2 -7 -1 -10 -7z"/>
</g>
</svg>
